<svg width="20" height="20" viewBox="0 0 20 20" fill="none" xmlns="http://www.w3.org/2000/svg">
<path d="M12.4903 17.4864V10.8249C12.4903 10.6041 12.4025 10.3923 12.2464 10.2361C12.0902 10.08 11.8784 9.99225 11.6576 9.99225H8.32683C8.10598 9.99225 7.89419 10.08 7.73803 10.2361C7.58187 10.3923 7.49414 10.6041 7.49414 10.8249V17.4864" stroke="#4A5565" stroke-width="1.66537" stroke-linecap="round" stroke-linejoin="round"/>
<path d="M2.49805 8.32686C2.49799 8.08461 2.55078 7.84525 2.65275 7.6255C2.75472 7.40575 2.9034 7.21089 3.08842 7.05452L8.91722 2.0584C9.21781 1.80436 9.59865 1.66498 9.99222 1.66498C10.3858 1.66498 10.7666 1.80436 11.0672 2.0584L16.896 7.05452C17.081 7.21089 17.2297 7.40575 17.3317 7.6255C17.4336 7.84525 17.4864 8.08461 17.4864 8.32686V15.821C17.4864 16.2627 17.3109 16.6863 16.9986 16.9986C16.6863 17.3109 16.2627 17.4864 15.821 17.4864H4.16342C3.72173 17.4864 3.29814 17.3109 2.98582 16.9986C2.67351 16.6863 2.49805 16.2627 2.49805 15.821V8.32686Z" stroke="#4A5565" stroke-width="1.66537" stroke-linecap="round" stroke-linejoin="round"/>
</svg>
