<svg width="20" height="20" viewBox="0 0 20 20" fill="none" xmlns="http://www.w3.org/2000/svg">
<g clip-path="url(#clip0_13_132)">
<path d="M8.55005 17.4864C8.69622 17.7395 8.90645 17.9498 9.15961 18.0959C9.41277 18.2421 9.69994 18.319 9.99226 18.319C10.2846 18.319 10.5717 18.2421 10.8249 18.0959C11.0781 17.9498 11.2883 17.7395 11.4345 17.4864" stroke="#4A5565" stroke-width="1.66537" stroke-linecap="round" stroke-linejoin="round"/>
<path d="M2.71621 12.7618C2.60743 12.881 2.53565 13.0293 2.50959 13.1885C2.48352 13.3478 2.50431 13.5112 2.56942 13.6589C2.63452 13.8066 2.74114 13.9322 2.8763 14.0204C3.01146 14.1086 3.16934 14.1556 3.33073 14.1557H16.6537C16.8151 14.1557 16.973 14.1089 17.1082 14.0209C17.2435 13.9328 17.3502 13.8074 17.4155 13.6598C17.4808 13.5123 17.5018 13.3489 17.4759 13.1896C17.4501 13.0303 17.3785 12.882 17.2699 12.7626C16.1624 11.621 14.9883 10.4078 14.9883 6.66152C14.9883 5.33647 14.462 4.06569 13.525 3.12873C12.5881 2.19178 11.3173 1.66541 9.99222 1.66541C8.66717 1.66541 7.39639 2.19178 6.45943 3.12873C5.52248 4.06569 4.99611 5.33647 4.99611 6.66152C4.99611 10.4078 3.82119 11.621 2.71621 12.7618Z" stroke="#4A5565" stroke-width="1.66537" stroke-linecap="round" stroke-linejoin="round"/>
</g>
<defs>
<clipPath id="clip0_13_132">
<rect width="19.9844" height="19.9844" fill="white"/>
</clipPath>
</defs>
</svg>
