<svg width="20" height="20" viewBox="0 0 20 20" fill="none" xmlns="http://www.w3.org/2000/svg">
<g clip-path="url(#clip0_13_124)">
<path d="M9.15953 18.0943C9.4127 18.2405 9.69988 18.3174 9.99222 18.3174C10.2845 18.3174 10.5717 18.2405 10.8249 18.0943L16.6537 14.7635C16.9066 14.6175 17.1167 14.4076 17.2628 14.1547C17.409 13.9019 17.4861 13.615 17.4864 13.323V6.66152C17.4861 6.36947 17.409 6.08264 17.2628 5.8298C17.1167 5.57696 16.9066 5.36699 16.6537 5.22097L10.8249 1.89023C10.5717 1.74406 10.2845 1.66711 9.99222 1.66711C9.69988 1.66711 9.4127 1.74406 9.15953 1.89023L3.33073 5.22097C3.07781 5.36699 2.86774 5.57696 2.72159 5.8298C2.57544 6.08264 2.49835 6.36947 2.49805 6.66152V13.323C2.49835 13.615 2.57544 13.9019 2.72159 14.1547C2.86774 14.4076 3.07781 14.6175 3.33073 14.7635L9.15953 18.0943Z" stroke="#4A5565" stroke-width="1.66537" stroke-linecap="round" stroke-linejoin="round"/>
<path d="M9.93506 18.3875V10.0606" stroke="#4A5565" stroke-width="1.66537" stroke-linecap="round" stroke-linejoin="round"/>
<path d="M2.7395 5.8288L9.99219 9.99222L17.2449 5.8288" stroke="#4A5565" stroke-width="1.66537" stroke-linecap="round" stroke-linejoin="round"/>
<path d="M6.24512 3.5556L13.7393 7.84393" stroke="#4A5565" stroke-width="1.66537" stroke-linecap="round" stroke-linejoin="round"/>
</g>
<defs>
<clipPath id="clip0_13_124">
<rect width="19.9844" height="19.9844" fill="white"/>
</clipPath>
</defs>
</svg>
